<svg width="40" height="40" viewBox="0 0 40 40" fill="none" xmlns="http://www.w3.org/2000/svg">
<path d="M8.50353 8.50353C8.66273 8.34391 8.85186 8.21728 9.06009 8.13088C9.26831 8.04447 9.49154 8 9.71698 8C9.94241 8 10.1656 8.04447 10.3739 8.13088C10.5821 8.21728 10.7712 8.34391 10.9304 8.50353L20.0004 17.577L29.0705 8.50353C29.2298 8.34417 29.419 8.21777 29.6272 8.13153C29.8354 8.04529 30.0586 8.0009 30.2839 8.0009C30.5093 8.0009 30.7324 8.04529 30.9406 8.13153C31.1488 8.21777 31.338 8.34417 31.4974 8.50353C31.6567 8.66288 31.7831 8.85206 31.8694 9.06026C31.9556 9.26846 32 9.49162 32 9.71698C32 9.94233 31.9556 10.1655 31.8694 10.3737C31.7831 10.5819 31.6567 10.7711 31.4974 10.9304L22.4239 20.0004L31.4974 29.0705C31.6567 29.2298 31.7831 29.419 31.8694 29.6272C31.9556 29.8354 32 30.0586 32 30.2839C32 30.5093 31.9556 30.7324 31.8694 30.9406C31.7831 31.1488 31.6567 31.338 31.4974 31.4974C31.338 31.6567 31.1488 31.7831 30.9406 31.8694C30.7324 31.9556 30.5093 32 30.2839 32C30.0586 32 29.8354 31.9556 29.6272 31.8694C29.419 31.7831 29.2298 31.6567 29.0705 31.4974L20.0004 22.4239L10.9304 31.4974C10.7711 31.6567 10.5819 31.7831 10.3737 31.8694C10.1655 31.9556 9.94233 32 9.71698 32C9.49162 32 9.26846 31.9556 9.06026 31.8694C8.85206 31.7831 8.66288 31.6567 8.50353 31.4974C8.34417 31.338 8.21777 31.1488 8.13153 30.9406C8.04529 30.7324 8.0009 30.5093 8.0009 30.2839C8.0009 30.0586 8.04529 29.8354 8.13153 29.6272C8.21777 29.419 8.34417 29.2298 8.50353 29.0705L17.577 20.0004L8.50353 10.9304C8.34391 10.7712 8.21728 10.5821 8.13088 10.3739C8.04447 10.1656 8 9.94241 8 9.71698C8 9.49154 8.04447 9.26831 8.13088 9.06009C8.21728 8.85186 8.34391 8.66273 8.50353 8.50353Z" fill="#0049B7"/>
</svg>
