<svg width="60" height="60" viewBox="0 0 60 60" fill="none" xmlns="http://www.w3.org/2000/svg">
<path fill-rule="evenodd" clip-rule="evenodd" d="M13.5 42C13.5 41.6022 13.658 41.2206 13.9393 40.9393C14.2206 40.658 14.6022 40.5 15 40.5H45C45.3978 40.5 45.7794 40.658 46.0607 40.9393C46.342 41.2206 46.5 41.6022 46.5 42C46.5 42.3978 46.342 42.7794 46.0607 43.0607C45.7794 43.342 45.3978 43.5 45 43.5H15C14.6022 43.5 14.2206 43.342 13.9393 43.0607C13.658 42.7794 13.5 42.3978 13.5 42ZM13.5 30C13.5 29.6022 13.658 29.2206 13.9393 28.9393C14.2206 28.658 14.6022 28.5 15 28.5H45C45.3978 28.5 45.7794 28.658 46.0607 28.9393C46.342 29.2206 46.5 29.6022 46.5 30C46.5 30.3978 46.342 30.7794 46.0607 31.0607C45.7794 31.342 45.3978 31.5 45 31.5H15C14.6022 31.5 14.2206 31.342 13.9393 31.0607C13.658 30.7794 13.5 30.3978 13.5 30ZM13.5 18C13.5 17.6022 13.658 17.2206 13.9393 16.9393C14.2206 16.658 14.6022 16.5 15 16.5H45C45.3978 16.5 45.7794 16.658 46.0607 16.9393C46.342 17.2206 46.5 17.6022 46.5 18C46.5 18.3978 46.342 18.7794 46.0607 19.0607C45.7794 19.342 45.3978 19.5 45 19.5H15C14.6022 19.5 14.2206 19.342 13.9393 19.0607C13.658 18.7794 13.5 18.3978 13.5 18Z" fill="#0049B7"/>
</svg>
