<svg width="179" height="42" viewBox="0 0 179 42" fill="none" xmlns="http://www.w3.org/2000/svg">
<path d="M65.0781 1.28125H21.0389C10.0343 1.28125 1.11328 10.1394 1.11328 21.0666C1.11328 31.9937 10.0343 40.8519 21.0389 40.8519H65.0781C76.0827 40.8519 85.0037 31.9937 85.0037 21.0666C85.0037 10.1394 76.0827 1.28125 65.0781 1.28125Z" fill="#2400FF"/>
<path d="M6.20488 20.5188C6.14004 18.6245 6.46485 16.737 7.15948 14.9717C7.8541 13.2063 8.90395 11.6001 10.2449 10.2512C11.5858 8.90228 13.1896 7.83905 14.9583 7.12644C16.7271 6.41383 18.6236 6.06681 20.5319 6.10659C27.9159 6.10659 33.2279 10.4839 34.5394 16.3056H27.8167C27.2194 14.9853 26.2329 13.8758 24.9874 13.1236C23.7419 12.3714 22.296 12.0119 20.8405 12.0925C16.0795 12.0925 12.8615 15.2879 12.8615 20.5188C12.8615 25.7496 16.1677 28.956 20.9617 28.956C24.4443 28.956 27.0673 27.4896 27.9379 25.0164H20.1242V19.9278H34.881C34.881 29.1092 29.0069 34.9419 20.6421 34.9419C12.2773 34.9419 6.20488 28.9888 6.20488 20.5188Z" fill="white"/>
<path d="M51.2356 21.0666C51.1708 19.1719 51.4956 17.2839 52.1901 15.5179C52.8846 13.7519 53.9343 12.1451 55.2751 10.7953C56.6158 9.44556 58.2195 8.38129 59.9883 7.66745C61.7571 6.95362 63.6538 6.6052 65.5627 6.64347C72.9466 6.64347 78.2586 11.0207 79.5701 16.8535H72.8474C72.2501 15.5331 71.2636 14.4236 70.0181 13.6714C68.7727 12.9192 67.3268 12.5597 65.8713 12.6403C61.1103 12.6403 57.8922 15.8248 57.8922 21.0666C57.8922 26.3084 61.1433 29.5476 65.9925 29.5476C69.4751 29.5476 72.098 28.0921 72.9687 25.608H65.1549V20.4757H79.9118C79.9118 29.657 74.0377 35.4788 65.6729 35.4788C57.3081 35.4788 51.2356 29.5476 51.2356 21.0666Z" fill="white"/>
<path d="M89.6543 25.1696C89.6543 18.8335 94.0626 14.5 100.003 14.5C102.163 14.4554 104.284 15.0745 106.075 16.2728V6.31445H112.302V35.1826H108.004L107.1 33.2128C105.166 34.9431 102.639 35.8747 100.036 35.8173C94.0185 35.8173 89.6543 31.4838 89.6543 25.1696ZM101.16 30.3348C102.185 30.3197 103.183 30.004 104.029 29.4273C104.874 28.8506 105.529 28.0388 105.911 27.0937C106.292 26.1487 106.385 25.1126 106.175 24.1158C105.966 23.1189 105.464 22.2058 104.734 21.491C104.003 20.7763 103.077 20.2919 102.07 20.0988C101.063 19.9056 100.021 20.0122 99.0748 20.4053C98.1288 20.7984 97.3209 21.4604 96.7527 22.3081C96.1844 23.1558 95.8812 24.1513 95.8811 25.1696C95.8717 25.8555 96.0027 26.5361 96.2661 27.1702C96.5295 27.8043 96.9198 28.3787 97.4134 28.8586C97.907 29.3385 98.4936 29.7138 99.1376 29.9619C99.7816 30.21 100.47 30.3257 101.16 30.3019V30.3348Z" fill="#001223"/>
<path d="M124.8 23.3308H129.924V22.4991C129.97 22.0843 129.921 21.6647 129.781 21.2711C129.641 20.8776 129.415 20.5202 129.118 20.2251C128.821 19.9301 128.461 19.705 128.064 19.5663C127.668 19.4277 127.245 19.3791 126.828 19.4241C126.083 19.3334 125.331 19.5222 124.72 19.9534C124.108 20.3846 123.681 21.0271 123.521 21.755H117.295C118 17.2245 121.493 14.4668 126.85 14.4668C132.801 14.4668 136.052 17.5418 136.052 22.9368V35.1823H131.765L130.817 33.0921C129.978 33.9926 128.952 34.7023 127.811 35.1726C126.67 35.643 125.439 35.8627 124.205 35.817C119.532 35.817 116.71 33.5299 116.71 29.6669C116.71 25.804 119.532 23.3308 124.8 23.3308ZM125.67 30.8488C128.492 30.8488 129.924 29.4699 129.924 27.5658V27.3579H125.516C123.731 27.3579 123.014 27.9926 123.014 29.0979C123.014 30.2031 123.808 30.8488 125.637 30.8488H125.67Z" fill="#001223"/>
<path d="M143.017 26.7993V20.4522H139.05V15.0901H143.271L144.174 10.1328H149.255V15.0901H155.394V20.4522H149.244V26.6352C149.244 28.6815 150.236 29.6664 152.385 29.6664H155.394V35.138H151.349C145.828 35.1818 143.017 32.3913 143.017 26.7993Z" fill="#001223"/>
<path d="M166.624 23.3308H171.737V22.4991C171.783 22.0823 171.734 21.6605 171.593 21.2652C171.452 20.8698 171.223 20.5111 170.924 20.2157C170.624 19.9202 170.261 19.6956 169.862 19.5585C169.463 19.4215 169.038 19.3755 168.618 19.4241C167.874 19.3334 167.122 19.5222 166.51 19.9534C165.899 20.3846 165.471 21.0271 165.312 21.755H159.085C159.802 17.2245 163.284 14.4668 168.64 14.4668C174.592 14.4668 177.843 17.5418 177.843 22.9368V35.1823H173.567L172.608 33.0921C171.769 33.9938 170.744 34.7043 169.603 35.1747C168.461 35.6451 167.23 35.8642 165.995 35.817C161.312 35.817 158.49 33.5299 158.49 29.6669C158.49 25.804 161.345 23.3308 166.624 23.3308ZM167.494 30.8488C170.305 30.8488 171.737 29.4699 171.737 27.5658V27.3579H167.329C165.544 27.3579 164.827 27.9926 164.827 29.0979C164.827 30.2031 165.632 30.8488 167.516 30.8488H167.494Z" fill="#001223"/>
<path d="M39.9614 5.54688H46.1551V11.1717H39.9614V5.54688ZM39.9614 14.3014H46.1551V34.415H39.9614V14.3014Z" fill="white"/>
</svg>
