<svg width="18" height="10" viewBox="0 0 18 10" fill="none" xmlns="http://www.w3.org/2000/svg">
<path fill-rule="evenodd" clip-rule="evenodd" d="M16.9424 9.19138C16.8843 9.24959 16.8153 9.29577 16.7394 9.32727C16.6635 9.35878 16.5821 9.375 16.4999 9.375C16.4177 9.375 16.3362 9.35878 16.2603 9.32727C16.1844 9.29577 16.1154 9.24959 16.0574 9.19138L8.99986 2.13263L1.94236 9.19138C1.88425 9.24949 1.81526 9.29559 1.73934 9.32704C1.66341 9.35848 1.58204 9.37467 1.49986 9.37467C1.41768 9.37467 1.3363 9.35848 1.26038 9.32704C1.18446 9.29559 1.11547 9.24949 1.05736 9.19138C0.99925 9.13327 0.953154 9.06429 0.921705 8.98836C0.890257 8.91244 0.874071 8.83106 0.874071 8.74888C0.874071 8.6667 0.890257 8.58533 0.921705 8.5094C0.953154 8.43348 0.999251 8.36449 1.05736 8.30638L8.55736 0.806383C8.61542 0.748179 8.68439 0.702001 8.76032 0.670492C8.83625 0.638985 8.91765 0.622766 8.99986 0.622766C9.08207 0.622766 9.16347 0.638985 9.2394 0.670492C9.31533 0.702001 9.3843 0.748179 9.44236 0.806383L16.9424 8.30638C17.0006 8.36444 17.0467 8.43341 17.0783 8.50934C17.1098 8.58527 17.126 8.66667 17.126 8.74888C17.126 8.83109 17.1098 8.91249 17.0782 8.98843C17.0467 9.06436 17.0006 9.13333 16.9424 9.19138Z" fill="#0049B7"/>
</svg>
