<svg width="20" height="20" viewBox="0 0 20 20" fill="none" xmlns="http://www.w3.org/2000/svg">
<path d="M10 18.75C7.67936 18.75 5.45376 17.8281 3.81282 16.1872C2.17187 14.5462 1.25 12.3206 1.25 10C1.25 7.67936 2.17187 5.45376 3.81282 3.81282C5.45376 2.17187 7.67936 1.25 10 1.25C12.3206 1.25 14.5462 2.17187 16.1872 3.81282C17.8281 5.45376 18.75 7.67936 18.75 10C18.75 12.3206 17.8281 14.5462 16.1872 16.1872C14.5462 17.8281 12.3206 18.75 10 18.75ZM10 20C12.6522 20 15.1957 18.9464 17.0711 17.0711C18.9464 15.1957 20 12.6522 20 10C20 7.34784 18.9464 4.8043 17.0711 2.92893C15.1957 1.05357 12.6522 0 10 0C7.34784 0 4.8043 1.05357 2.92893 2.92893C1.05357 4.8043 0 7.34784 0 10C0 12.6522 1.05357 15.1957 2.92893 17.0711C4.8043 18.9464 7.34784 20 10 20Z" fill="#C80078"/>
<path d="M8.75244 13.7504C8.75244 13.5862 8.78477 13.4237 8.84759 13.272C8.91041 13.1204 9.00248 12.9826 9.11856 12.8665C9.23463 12.7504 9.37243 12.6584 9.52409 12.5955C9.67574 12.5327 9.83829 12.5004 10.0024 12.5004C10.1666 12.5004 10.3291 12.5327 10.4808 12.5955C10.6325 12.6584 10.7703 12.7504 10.8863 12.8665C11.0024 12.9826 11.0945 13.1204 11.1573 13.272C11.2201 13.4237 11.2524 13.5862 11.2524 13.7504C11.2524 14.0819 11.1207 14.3999 10.8863 14.6343C10.6519 14.8687 10.334 15.0004 10.0024 15.0004C9.67092 15.0004 9.35298 14.8687 9.11856 14.6343C8.88414 14.3999 8.75244 14.0819 8.75244 13.7504ZM8.87494 6.24414C8.8583 6.08644 8.87499 5.92701 8.92394 5.77618C8.97289 5.62535 9.05301 5.48649 9.15909 5.36862C9.26517 5.25076 9.39485 5.15651 9.53971 5.09199C9.68456 5.02748 9.84137 4.99414 9.99994 4.99414C10.1585 4.99414 10.3153 5.02748 10.4602 5.09199C10.605 5.15651 10.7347 5.25076 10.8408 5.36862C10.9469 5.48649 11.027 5.62535 11.0759 5.77618C11.1249 5.92701 11.1416 6.08644 11.1249 6.24414L10.6874 10.6279C10.6727 10.8001 10.5939 10.9605 10.4666 11.0774C10.3393 11.1943 10.1728 11.2592 9.99994 11.2592C9.8271 11.2592 9.66055 11.1943 9.53325 11.0774C9.40594 10.9605 9.32714 10.8001 9.31244 10.6279L8.87494 6.24414Z" fill="#C80078"/>
</svg>
