<svg width="12" height="12" viewBox="0 0 12 12" fill="none" xmlns="http://www.w3.org/2000/svg">
<path d="M10.3905 2.73517C10.4254 2.77 10.4531 2.81139 10.472 2.85695C10.4909 2.9025 10.5007 2.95134 10.5007 3.00067C10.5007 3.05 10.4909 3.09884 10.472 3.1444C10.4531 3.18995 10.4254 3.23134 10.3905 3.26617L5.14049 8.51617C5.10565 8.55109 5.06427 8.5788 5.01871 8.5977C4.97315 8.61661 4.92431 8.62634 4.87499 8.62634C4.82566 8.62634 4.77682 8.61661 4.73126 8.5977C4.6857 8.5788 4.64432 8.55109 4.60949 8.51617L1.98449 5.89117C1.91407 5.82076 1.87451 5.72525 1.87451 5.62567C1.87451 5.52609 1.91407 5.43059 1.98449 5.36017C2.0549 5.28976 2.1504 5.2502 2.24999 5.2502C2.34957 5.2502 2.44507 5.28976 2.51549 5.36017L4.87499 7.72042L9.85949 2.73517C9.89432 2.70025 9.9357 2.67254 9.98126 2.65364C10.0268 2.63473 10.0757 2.625 10.125 2.625C10.1743 2.625 10.2232 2.63473 10.2687 2.65364C10.3143 2.67254 10.3557 2.70025 10.3905 2.73517Z" fill="black"/>
</svg>
