<svg width="26" height="30" viewBox="0 0 26 30" fill="none" xmlns="http://www.w3.org/2000/svg">
<path fill-rule="evenodd" clip-rule="evenodd" d="M18.488 0.548099C18.4329 0.425817 18.3524 0.316922 18.252 0.228791C18.1515 0.140948 18.0335 0.075905 17.906 0.0380589C17.7785 0.000212699 17.6444 -0.00955481 17.5129 0.0094165L4.51286 1.88441C4.29133 1.91604 4.08857 2.02734 3.94185 2.19787C3.79513 2.36839 3.71432 2.58666 3.71429 2.81254V28.125H0.928571C0.682299 28.125 0.446113 28.2238 0.271972 28.3996C0.0978313 28.5754 0 28.8139 0 29.0625C0 29.3111 0.0978313 29.5496 0.271972 29.7254C0.446113 29.9012 0.682299 30 0.928571 30H25.0714C25.3177 30 25.5539 29.9012 25.728 29.7254C25.9022 29.5496 26 29.3111 26 29.0625C26 28.8139 25.9022 28.5754 25.728 28.3996C25.5539 28.2238 25.3177 28.125 25.0714 28.125H22.2857V4.68753C22.2857 3.94161 21.9922 3.22625 21.4698 2.6988C20.9474 2.17135 20.2388 1.87504 19.5 1.87504H18.5714V0.93754C18.5716 0.803194 18.5432 0.670381 18.488 0.548099ZM18.5714 3.75004H19.5C19.7463 3.75004 19.9825 3.84881 20.1566 4.02462C20.3307 4.20044 20.4286 4.43889 20.4286 4.68753V28.125H18.5714V3.75004ZM13 16.875C13 17.91 13.416 18.75 13.9286 18.75C14.4411 18.75 14.8571 17.91 14.8571 16.875C14.8571 15.84 14.4411 15 13.9286 15C13.416 15 13 15.84 13 16.875Z" fill="#0049B7"/>
</svg>
